<mxfile host="app.diagrams.net" agent="Mozilla/5.0 (X11; Ubuntu; Linux x86_64; rv:137.0) Gecko/20100101 Firefox/137.0" version="26.2.12">
  <diagram name="Page-1" id="Dg-g7MD_F9sybJDa8Roz">
    <mxGraphModel dx="1358" dy="920" grid="1" gridSize="10" guides="1" tooltips="1" connect="1" arrows="1" fold="1" page="1" pageScale="1" pageWidth="850" pageHeight="1100" math="0" shadow="0">
      <root>
        <mxCell id="0" />
        <mxCell id="1" parent="0" />
        <mxCell id="VBVmibu96n7wG6fJEEzV-45" value="" style="rounded=0;whiteSpace=wrap;html=1;fillColor=#fad7ac;strokeColor=#b46504;" parent="1" vertex="1">
          <mxGeometry x="480" y="390" width="130" height="130" as="geometry" />
        </mxCell>
        <mxCell id="VBVmibu96n7wG6fJEEzV-1" value="" style="rounded=0;whiteSpace=wrap;html=1;fillColor=#fad7ac;strokeColor=#b46504;" parent="1" vertex="1">
          <mxGeometry x="270" y="390" width="200" height="130" as="geometry" />
        </mxCell>
        <mxCell id="VBVmibu96n7wG6fJEEzV-2" value="the" style="rounded=1;whiteSpace=wrap;html=1;fillColor=#b0e3e6;strokeColor=#0e8088;" parent="1" vertex="1">
          <mxGeometry x="280" y="400" width="180" height="20" as="geometry" />
        </mxCell>
        <mxCell id="VBVmibu96n7wG6fJEEzV-3" value="cat" style="rounded=1;whiteSpace=wrap;html=1;fillColor=#b1ddf0;strokeColor=#10739e;" parent="1" vertex="1">
          <mxGeometry x="280" y="430" width="180" height="20" as="geometry" />
        </mxCell>
        <mxCell id="VBVmibu96n7wG6fJEEzV-4" value="is" style="rounded=1;whiteSpace=wrap;html=1;fillColor=#d0cee2;strokeColor=#56517e;" parent="1" vertex="1">
          <mxGeometry x="280" y="460" width="180" height="20" as="geometry" />
        </mxCell>
        <mxCell id="VBVmibu96n7wG6fJEEzV-5" value="balck" style="rounded=1;whiteSpace=wrap;html=1;fillColor=#fad9d5;strokeColor=#ae4132;" parent="1" vertex="1">
          <mxGeometry x="280" y="490" width="180" height="20" as="geometry" />
        </mxCell>
        <mxCell id="VBVmibu96n7wG6fJEEzV-6" value="" style="rounded=0;whiteSpace=wrap;html=1;fillColor=#fad7ac;strokeColor=#b46504;direction=south;" parent="1" vertex="1">
          <mxGeometry x="480" y="180" width="130" height="200" as="geometry" />
        </mxCell>
        <mxCell id="VBVmibu96n7wG6fJEEzV-7" value="" style="rounded=1;whiteSpace=wrap;html=1;fillColor=#b1ddf0;strokeColor=#10739e;direction=south;" parent="1" vertex="1">
          <mxGeometry x="520" y="190" width="20" height="180" as="geometry" />
        </mxCell>
        <mxCell id="VBVmibu96n7wG6fJEEzV-8" value="" style="rounded=1;whiteSpace=wrap;html=1;fillColor=#d0cee2;strokeColor=#56517e;direction=south;" parent="1" vertex="1">
          <mxGeometry x="550" y="190" width="20" height="180" as="geometry" />
        </mxCell>
        <mxCell id="VBVmibu96n7wG6fJEEzV-9" value="" style="rounded=1;whiteSpace=wrap;html=1;fillColor=#fad9d5;strokeColor=#ae4132;direction=south;" parent="1" vertex="1">
          <mxGeometry x="580" y="190" width="20" height="180" as="geometry" />
        </mxCell>
        <mxCell id="VBVmibu96n7wG6fJEEzV-10" value="" style="rounded=1;whiteSpace=wrap;html=1;fillColor=#b0e3e6;strokeColor=#0e8088;direction=south;" parent="1" vertex="1">
          <mxGeometry x="490" y="190" width="20" height="180" as="geometry" />
        </mxCell>
        <mxCell id="VBVmibu96n7wG6fJEEzV-12" value="" style="rounded=1;whiteSpace=wrap;html=1;fillColor=#b0e3e6;strokeColor=#0e8088;" parent="1" vertex="1">
          <mxGeometry x="490" y="400" width="10" height="20" as="geometry" />
        </mxCell>
        <mxCell id="VBVmibu96n7wG6fJEEzV-14" value="" style="rounded=1;whiteSpace=wrap;html=1;fillColor=#b0e3e6;strokeColor=#0e8088;" parent="1" vertex="1">
          <mxGeometry x="500" y="400" width="10" height="20" as="geometry" />
        </mxCell>
        <mxCell id="VBVmibu96n7wG6fJEEzV-15" value="" style="rounded=1;whiteSpace=wrap;html=1;fillColor=#b0e3e6;strokeColor=#0e8088;" parent="1" vertex="1">
          <mxGeometry x="520" y="400" width="10" height="20" as="geometry" />
        </mxCell>
        <mxCell id="VBVmibu96n7wG6fJEEzV-16" value="" style="rounded=1;whiteSpace=wrap;html=1;fillColor=#b1ddf0;strokeColor=#10739e;" parent="1" vertex="1">
          <mxGeometry x="530" y="400" width="10" height="20" as="geometry" />
        </mxCell>
        <mxCell id="VBVmibu96n7wG6fJEEzV-17" value="" style="rounded=1;whiteSpace=wrap;html=1;fillColor=#b0e3e6;strokeColor=#0e8088;" parent="1" vertex="1">
          <mxGeometry x="550" y="400" width="10" height="20" as="geometry" />
        </mxCell>
        <mxCell id="VBVmibu96n7wG6fJEEzV-18" value="" style="rounded=1;whiteSpace=wrap;html=1;fillColor=#d0cee2;strokeColor=#56517e;" parent="1" vertex="1">
          <mxGeometry x="560" y="400" width="10" height="20" as="geometry" />
        </mxCell>
        <mxCell id="VBVmibu96n7wG6fJEEzV-19" value="" style="rounded=1;whiteSpace=wrap;html=1;fillColor=#b0e3e6;strokeColor=#0e8088;" parent="1" vertex="1">
          <mxGeometry x="580" y="400" width="10" height="20" as="geometry" />
        </mxCell>
        <mxCell id="VBVmibu96n7wG6fJEEzV-20" value="" style="rounded=1;whiteSpace=wrap;html=1;fillColor=#fad9d5;strokeColor=#ae4132;" parent="1" vertex="1">
          <mxGeometry x="590" y="400" width="10" height="20" as="geometry" />
        </mxCell>
        <mxCell id="VBVmibu96n7wG6fJEEzV-21" value="" style="rounded=1;whiteSpace=wrap;html=1;fillColor=#b1ddf0;strokeColor=#10739e;" parent="1" vertex="1">
          <mxGeometry x="490" y="430" width="10" height="20" as="geometry" />
        </mxCell>
        <mxCell id="VBVmibu96n7wG6fJEEzV-22" value="" style="rounded=1;whiteSpace=wrap;html=1;fillColor=#b0e3e6;strokeColor=#0e8088;" parent="1" vertex="1">
          <mxGeometry x="500" y="430" width="10" height="20" as="geometry" />
        </mxCell>
        <mxCell id="VBVmibu96n7wG6fJEEzV-23" value="" style="rounded=1;whiteSpace=wrap;html=1;fillColor=#b1ddf0;strokeColor=#10739e;" parent="1" vertex="1">
          <mxGeometry x="520" y="430" width="10" height="20" as="geometry" />
        </mxCell>
        <mxCell id="VBVmibu96n7wG6fJEEzV-24" value="" style="rounded=1;whiteSpace=wrap;html=1;fillColor=#b1ddf0;strokeColor=#10739e;" parent="1" vertex="1">
          <mxGeometry x="530" y="430" width="10" height="20" as="geometry" />
        </mxCell>
        <mxCell id="VBVmibu96n7wG6fJEEzV-25" value="" style="rounded=1;whiteSpace=wrap;html=1;fillColor=#b1ddf0;strokeColor=#10739e;" parent="1" vertex="1">
          <mxGeometry x="550" y="430" width="10" height="20" as="geometry" />
        </mxCell>
        <mxCell id="VBVmibu96n7wG6fJEEzV-26" value="" style="rounded=1;whiteSpace=wrap;html=1;fillColor=#d0cee2;strokeColor=#56517e;" parent="1" vertex="1">
          <mxGeometry x="560" y="430" width="10" height="20" as="geometry" />
        </mxCell>
        <mxCell id="VBVmibu96n7wG6fJEEzV-27" value="" style="rounded=1;whiteSpace=wrap;html=1;fillColor=#b1ddf0;strokeColor=#10739e;" parent="1" vertex="1">
          <mxGeometry x="580" y="430" width="10" height="20" as="geometry" />
        </mxCell>
        <mxCell id="VBVmibu96n7wG6fJEEzV-28" value="" style="rounded=1;whiteSpace=wrap;html=1;fillColor=#fad9d5;strokeColor=#ae4132;" parent="1" vertex="1">
          <mxGeometry x="590" y="430" width="10" height="20" as="geometry" />
        </mxCell>
        <mxCell id="VBVmibu96n7wG6fJEEzV-29" value="" style="rounded=1;whiteSpace=wrap;html=1;fillColor=#d0cee2;strokeColor=#56517e;" parent="1" vertex="1">
          <mxGeometry x="490" y="460" width="10" height="20" as="geometry" />
        </mxCell>
        <mxCell id="VBVmibu96n7wG6fJEEzV-30" value="" style="rounded=1;whiteSpace=wrap;html=1;fillColor=#b0e3e6;strokeColor=#0e8088;" parent="1" vertex="1">
          <mxGeometry x="500" y="460" width="10" height="20" as="geometry" />
        </mxCell>
        <mxCell id="VBVmibu96n7wG6fJEEzV-31" value="" style="rounded=1;whiteSpace=wrap;html=1;fillColor=#d0cee2;strokeColor=#56517e;" parent="1" vertex="1">
          <mxGeometry x="520" y="460" width="10" height="20" as="geometry" />
        </mxCell>
        <mxCell id="VBVmibu96n7wG6fJEEzV-32" value="" style="rounded=1;whiteSpace=wrap;html=1;fillColor=#b1ddf0;strokeColor=#10739e;" parent="1" vertex="1">
          <mxGeometry x="530" y="460" width="10" height="20" as="geometry" />
        </mxCell>
        <mxCell id="VBVmibu96n7wG6fJEEzV-33" value="" style="rounded=1;whiteSpace=wrap;html=1;fillColor=#d0cee2;strokeColor=#56517e;" parent="1" vertex="1">
          <mxGeometry x="550" y="460" width="10" height="20" as="geometry" />
        </mxCell>
        <mxCell id="VBVmibu96n7wG6fJEEzV-34" value="" style="rounded=1;whiteSpace=wrap;html=1;fillColor=#d0cee2;strokeColor=#56517e;" parent="1" vertex="1">
          <mxGeometry x="560" y="460" width="10" height="20" as="geometry" />
        </mxCell>
        <mxCell id="VBVmibu96n7wG6fJEEzV-35" value="" style="rounded=1;whiteSpace=wrap;html=1;fillColor=#d0cee2;strokeColor=#56517e;" parent="1" vertex="1">
          <mxGeometry x="580" y="460" width="10" height="20" as="geometry" />
        </mxCell>
        <mxCell id="VBVmibu96n7wG6fJEEzV-36" value="" style="rounded=1;whiteSpace=wrap;html=1;fillColor=#fad9d5;strokeColor=#ae4132;" parent="1" vertex="1">
          <mxGeometry x="590" y="460" width="10" height="20" as="geometry" />
        </mxCell>
        <mxCell id="VBVmibu96n7wG6fJEEzV-37" value="" style="rounded=1;whiteSpace=wrap;html=1;fillColor=#fad9d5;strokeColor=#ae4132;" parent="1" vertex="1">
          <mxGeometry x="490" y="490" width="10" height="20" as="geometry" />
        </mxCell>
        <mxCell id="VBVmibu96n7wG6fJEEzV-38" value="" style="rounded=1;whiteSpace=wrap;html=1;fillColor=#b0e3e6;strokeColor=#0e8088;" parent="1" vertex="1">
          <mxGeometry x="500" y="490" width="10" height="20" as="geometry" />
        </mxCell>
        <mxCell id="VBVmibu96n7wG6fJEEzV-39" value="" style="rounded=1;whiteSpace=wrap;html=1;fillColor=#fad9d5;strokeColor=#ae4132;" parent="1" vertex="1">
          <mxGeometry x="520" y="490" width="10" height="20" as="geometry" />
        </mxCell>
        <mxCell id="VBVmibu96n7wG6fJEEzV-40" value="" style="rounded=1;whiteSpace=wrap;html=1;fillColor=#b1ddf0;strokeColor=#10739e;" parent="1" vertex="1">
          <mxGeometry x="530" y="490" width="10" height="20" as="geometry" />
        </mxCell>
        <mxCell id="VBVmibu96n7wG6fJEEzV-41" value="" style="rounded=1;whiteSpace=wrap;html=1;fillColor=#fad9d5;strokeColor=#ae4132;" parent="1" vertex="1">
          <mxGeometry x="550" y="490" width="10" height="20" as="geometry" />
        </mxCell>
        <mxCell id="VBVmibu96n7wG6fJEEzV-42" value="" style="rounded=1;whiteSpace=wrap;html=1;fillColor=#d0cee2;strokeColor=#56517e;" parent="1" vertex="1">
          <mxGeometry x="560" y="490" width="10" height="20" as="geometry" />
        </mxCell>
        <mxCell id="VBVmibu96n7wG6fJEEzV-43" value="" style="rounded=1;whiteSpace=wrap;html=1;fillColor=#fad9d5;strokeColor=#ae4132;" parent="1" vertex="1">
          <mxGeometry x="580" y="490" width="10" height="20" as="geometry" />
        </mxCell>
        <mxCell id="VBVmibu96n7wG6fJEEzV-44" value="" style="rounded=1;whiteSpace=wrap;html=1;fillColor=#fad9d5;strokeColor=#ae4132;" parent="1" vertex="1">
          <mxGeometry x="590" y="490" width="10" height="20" as="geometry" />
        </mxCell>
        <mxCell id="VBVmibu96n7wG6fJEEzV-48" value="is" style="text;html=1;align=center;verticalAlign=middle;whiteSpace=wrap;rounded=0;direction=west;rotation=90;" parent="1" vertex="1">
          <mxGeometry x="530" y="265" width="60" height="30" as="geometry" />
        </mxCell>
        <mxCell id="VBVmibu96n7wG6fJEEzV-49" value="black" style="text;html=1;align=center;verticalAlign=middle;whiteSpace=wrap;rounded=0;direction=west;rotation=90;" parent="1" vertex="1">
          <mxGeometry x="560" y="265" width="60" height="30" as="geometry" />
        </mxCell>
        <mxCell id="VBVmibu96n7wG6fJEEzV-50" value="cat" style="text;html=1;align=center;verticalAlign=middle;whiteSpace=wrap;rounded=0;direction=west;rotation=90;" parent="1" vertex="1">
          <mxGeometry x="500" y="265" width="60" height="30" as="geometry" />
        </mxCell>
        <mxCell id="VBVmibu96n7wG6fJEEzV-51" value="the" style="text;html=1;align=center;verticalAlign=middle;whiteSpace=wrap;rounded=0;direction=west;rotation=90;flipH=0;flipV=0;" parent="1" vertex="1">
          <mxGeometry x="470" y="265" width="60" height="30" as="geometry" />
        </mxCell>
        <mxCell id="VBVmibu96n7wG6fJEEzV-52" value="" style="rounded=1;whiteSpace=wrap;html=1;fillColor=#b0e3e6;strokeColor=#0e8088;" parent="1" vertex="1">
          <mxGeometry x="286" y="405" width="14" height="10" as="geometry" />
        </mxCell>
        <mxCell id="VBVmibu96n7wG6fJEEzV-53" value="" style="rounded=1;whiteSpace=wrap;html=1;fillColor=#fad9d5;strokeColor=#ae4132;" parent="1" vertex="1">
          <mxGeometry x="440" y="495" width="14" height="10" as="geometry" />
        </mxCell>
        <mxCell id="VBVmibu96n7wG6fJEEzV-54" value="" style="rounded=1;whiteSpace=wrap;html=1;fillColor=#b0e3e6;strokeColor=#0e8088;direction=south;" parent="1" vertex="1">
          <mxGeometry x="495" y="198" width="10" height="14" as="geometry" />
        </mxCell>
        <mxCell id="VBVmibu96n7wG6fJEEzV-55" value="" style="rounded=1;whiteSpace=wrap;html=1;fillColor=#fad9d5;strokeColor=#ae4132;direction=south;" parent="1" vertex="1">
          <mxGeometry x="585" y="350" width="10" height="14" as="geometry" />
        </mxCell>
      </root>
    </mxGraphModel>
  </diagram>
</mxfile>
